<?xml version="1.0" encoding="utf-8"?>
<!-- Generator: Adobe Illustrator 26.0.1, SVG Export Plug-In . SVG Version: 6.00 Build 0)  -->
<svg version="1.1" id="Capa_1" xmlns="http://www.w3.org/2000/svg" xmlns:xlink="http://www.w3.org/1999/xlink" x="0px" y="0px"
	 viewBox="0 0 1280 1024" style="enable-background:new 0 0 1280 1024;" xml:space="preserve">
<style type="text/css">
	.st0{fill:none;stroke:#000000;stroke-miterlimit:10;}
	.st1{fill:#F2F2F2;}
	.st2{fill:#023047;stroke:#000000;stroke-miterlimit:10;}
	.st3{fill:#F7931E;}
	.st4{fill:#FBB03B;}
	.st5{fill:#F15A24;}
	.st6{fill:#ED1C24;}
	.st7{fill:#F2F2F2;stroke:#000000;stroke-miterlimit:10;}
</style>
<g>
	<polygon class="st0" points="545.21,388.19 558.3,365.53 571.39,388.19 	"/>
	<polygon class="st1" points="545.21,388.19 558.3,365.53 571.39,388.19 	"/>
</g>
<g>
	<path class="st2" d="M1257.13,996.75H22.87c-6.6,0-12-5.4-12-12V39.25c0-6.6,5.4-12,12-12h1234.26c6.6,0,12,5.4,12,12v945.51
		C1269.13,991.35,1263.73,996.75,1257.13,996.75z"/>
	<g>
		<rect x="25.13" y="163.9" class="st3" width="1222.46" height="117.5"/>
		<path d="M1247.09,164.4v116.5H25.63V164.4H1247.09 M1248.09,163.4H24.63v118.5h1223.46V163.4L1248.09,163.4z"/>
	</g>
	<g>
		<path class="st4" d="M26.77,162.9c-0.9,0-1.64-0.74-1.64-1.64V47.04c0-0.9,0.74-1.64,1.64-1.64h1219.18c0.9,0,1.64,0.74,1.64,1.64
			v114.22c0,0.9-0.74,1.64-1.64,1.64H26.77z"/>
		<path d="M1245.94,45.9c0.63,0,1.14,0.51,1.14,1.14v114.22c0,0.63-0.51,1.14-1.14,1.14H26.77c-0.63,0-1.14-0.51-1.14-1.14V47.04
			c0-0.63,0.51-1.14,1.14-1.14H1245.94 M1245.94,44.9H26.77c-1.18,0-2.14,0.96-2.14,2.14v114.22c0,1.18,0.96,2.14,2.14,2.14h1219.18
			c1.18,0,2.14-0.96,2.14-2.14V47.04C1248.09,45.86,1247.13,44.9,1245.94,44.9L1245.94,44.9z"/>
	</g>
	<g>
		<rect x="25.13" y="282.4" class="st5" width="1222.46" height="117.5"/>
		<path d="M1247.09,282.9v116.5H25.63V282.9H1247.09 M1248.09,281.9H24.63v118.5h1223.46V281.9L1248.09,281.9z"/>
	</g>
	<g>
		<rect x="25.13" y="402.3" class="st6" width="1222.46" height="117.5"/>
		<path d="M1247.09,402.8v116.5H25.63V402.8H1247.09 M1248.09,401.8H24.63v118.5h1223.46V401.8L1248.09,401.8z"/>
	</g>
	<g>
		<g>
			<polyline class="st0" points="837.39,674.66 825.78,654.55 872.23,654.55 849.01,694.76 837.39,674.66 			"/>
			<polyline class="st1" points="837.39,674.66 825.78,654.55 872.23,654.55 849.01,694.76 837.39,674.66 			"/>
		</g>
		<g>
			<path class="st0" d="M453.92,655.06H408.3l22.82,39.5l0.11,0.2h92.68l23.21,40.23l23.23,40.23l23.21,40.21h-46.44l-23.23-40.21
				h-46.44l23.23,40.21l23.21,40.23h232.22l23.23-40.23l23.23-40.21l-23.23-40.23h-92.89l23.23-40.21v-0.02h92.89l23.21-40.21
				H454.22L453.92,655.06z M570.34,694.76h92.88l-23.21,40.23l-23.23,40.23h139.33l-23.21,40.21h-92.89l-23.23-40.21l-23.21-40.23
				h-0.02l-23.21-40.21V694.76z"/>
			<path class="st1" d="M453.92,655.06H408.3l22.82,39.5l0.11,0.2h92.68l23.21,40.23l23.23,40.23l23.21,40.21h-46.44l-23.23-40.21
				h-46.44l23.23,40.21l23.21,40.23h232.22l23.23-40.23l23.23-40.21l-23.23-40.23h-92.89l23.23-40.21v-0.02h92.89l23.21-40.21
				H454.22L453.92,655.06z M570.34,694.76h92.88l-23.21,40.23l-23.23,40.23h139.33l-23.21,40.21h-92.89l-23.23-40.21l-23.21-40.23
				h-0.02l-23.21-40.21V694.76z"/>
		</g>
		<g>
			<polygon class="st0" points="431.23,694.76 431.01,694.76 431.12,694.56 			"/>
			<polygon class="st1" points="431.23,694.76 431.01,694.76 431.12,694.56 			"/>
		</g>
		<g>
			<polygon class="st0" points="965.11,734.99 941.9,775.21 918.67,815.42 895.44,855.65 872.23,895.88 849.01,936.09 
				825.78,976.31 454.22,976.31 431.01,936.09 407.78,895.88 407.78,895.86 384.56,855.65 361.35,815.42 338.12,775.21 
				314.89,734.99 338.12,694.78 361.35,734.99 384.56,775.21 407.78,815.42 431.01,855.65 454.22,895.88 454.24,895.88 
				477.45,936.09 802.57,936.09 825.78,895.88 825.78,895.86 849.01,855.65 872.23,815.42 895.44,775.21 918.67,734.99 
				895.44,694.78 895.44,694.76 872.23,654.55 849.01,614.32 825.78,574.11 825.78,574.1 454.44,574.1 454.74,574.61 431.53,614.84 
				408.3,655.06 385.07,695.27 361.86,735.5 338.63,695.29 338.63,695.27 361.86,655.06 385.07,614.84 385.09,614.84 408.3,574.63 
				408.3,574.61 431.42,534.6 431.01,533.89 849.01,533.89 872.22,574.1 872.23,574.1 895.44,614.32 918.67,654.55 941.9,694.76 			
				"/>
			<polygon class="st1" points="965.11,734.99 941.9,775.21 918.67,815.42 895.44,855.65 872.23,895.88 849.01,936.09 
				825.78,976.31 454.22,976.31 431.01,936.09 407.78,895.88 407.78,895.86 384.56,855.65 361.35,815.42 338.12,775.21 
				314.89,734.99 338.12,694.78 361.35,734.99 384.56,775.21 407.78,815.42 431.01,855.65 454.22,895.88 454.24,895.88 
				477.45,936.09 802.57,936.09 825.78,895.88 825.78,895.86 849.01,855.65 872.23,815.42 895.44,775.21 918.67,734.99 
				895.44,694.78 895.44,694.76 872.23,654.55 849.01,614.32 825.78,574.11 825.78,574.1 454.44,574.1 454.74,574.61 431.53,614.84 
				408.3,655.06 385.07,695.27 361.86,735.5 338.63,695.29 338.63,695.27 361.86,655.06 385.07,614.84 385.09,614.84 408.3,574.63 
				408.3,574.61 431.42,534.6 431.01,533.89 849.01,533.89 872.22,574.1 872.23,574.1 895.44,614.32 918.67,654.55 941.9,694.76 			
				"/>
		</g>
		<g>
			<g>
				<polygon class="st0" points="431.83,694.76 431.53,695.27 431.23,694.76 				"/>
				<polygon class="st1" points="431.83,694.76 431.53,695.27 431.23,694.76 				"/>
			</g>
		</g>
	</g>
	<polygon class="st2" points="217.87,520.81 380.62,280.75 447.97,363.53 605.11,161.49 742.61,328.08 828.2,234.45 1016.21,520.81 
			"/>
	<polygon class="st7" points="289.8,461.05 368.37,341.15 408.3,390.64 369.78,378.01 349.05,435.53 	"/>
	<polygon class="st7" points="501.66,341.15 591.46,222.65 640,246.12 617.04,291.02 583.04,272.78 561.99,312.07 	"/>
	<polygon class="st7" points="790.69,363.98 825.78,289.62 894.52,363.98 835.59,334.51 825.78,382.22 	"/>
	<rect x="1010.59" y="714.47" class="st7" width="219.25" height="39.82"/>
	<rect x="45.3" y="714.47" class="st7" width="219.25" height="39.82"/>
</g>
</svg>
